<?xml version="1.0" standalone="no"?>
<!DOCTYPE svg PUBLIC "-//W3C//DTD SVG 20010904//EN"
 "http://www.w3.org/TR/2001/REC-SVG-20010904/DTD/svg10.dtd">
<svg version="1.0" xmlns="http://www.w3.org/2000/svg"
 width="514.000000pt" height="514.000000pt" viewBox="0 0 514.000000 514.000000"
 preserveAspectRatio="xMidYMid meet">
<metadata>
Created by potrace 1.11, written by Peter Selinger 2001-2013
</metadata>
<g transform="translate(0.000000,514.000000) scale(0.100000,-0.100000)"
fill="#000000" stroke="none">
<path d="M2873 5069 l-42 -30 3 -93 c4 -126 -2 -133 -62 -71 -92 96 -232 214
-251 210 -10 -2 -32 -16 -50 -32 l-31 -29 40 -18 c22 -10 45 -26 51 -37 9 -18
6 -98 -7 -164 -2 -11 -7 -55 -10 -98 -6 -73 -6 -77 12 -71 11 4 26 12 34 19 8
7 23 15 33 18 14 5 17 19 18 74 1 37 1 72 0 77 -1 5 1 21 4 37 7 32 21 30 48
-7 18 -24 18 -27 -3 -112 -12 -48 -24 -98 -27 -112 -9 -48 -27 -75 -53 -76
-14 -1 -52 -4 -85 -8 -33 -4 -67 -8 -75 -8 -13 0 -66 -10 -196 -34 -53 -10
-226 -65 -294 -93 -467 -196 -836 -544 -1047 -988 -50 -105 -119 -294 -129
-352 -3 -14 -8 -35 -11 -46 -4 -11 -7 -22 -8 -25 0 -3 -4 -21 -8 -40 -4 -19
-9 -46 -12 -60 -3 -14 -8 -55 -11 -92 -11 -126 -21 -139 -116 -153 -58 -9 -59
-4 -22 90 15 36 24 69 20 72 -3 3 -23 -6 -44 -21 -33 -23 -40 -34 -50 -84 -21
-105 -42 -172 -56 -175 -5 -1 -20 30 -33 68 -13 39 -35 101 -49 138 l-26 68
-30 -20 c-27 -16 -34 -32 -55 -112 -26 -100 -43 -143 -56 -144 -5 0 -24 43
-42 95 -45 133 -75 200 -89 200 -7 0 -22 -10 -34 -23 l-21 -23 24 -49 c14 -26
25 -56 25 -65 0 -9 4 -20 8 -26 8 -8 31 -79 67 -206 13 -46 19 -56 33 -51 26
10 38 25 46 58 15 61 89 217 96 204 5 -8 27 -71 50 -141 l43 -127 28 20 c16
11 30 29 30 40 1 10 2 22 4 27 5 19 18 50 32 80 18 36 14 36 136 4 54 -15 62
-20 63 -42 8 -201 61 -462 130 -648 102 -274 238 -480 470 -713 243 -246 516
-407 851 -503 65 -19 137 -36 161 -40 24 -3 46 -7 50 -10 4 -2 34 -7 67 -10
117 -13 122 -15 129 -48 10 -50 8 -55 -45 -93 -53 -38 -82 -87 -72 -123 7 -28
50 -54 137 -82 106 -35 142 -84 96 -130 -33 -33 -85 -27 -127 15 -19 19 -38
35 -42 35 -3 0 -23 -14 -44 -31 -31 -25 -35 -34 -27 -50 24 -44 117 -63 191
-37 84 28 159 105 159 162 0 46 -21 65 -95 87 -78 24 -115 41 -139 64 -35 36
-6 95 46 95 14 0 41 -11 60 -24 l35 -24 37 21 c20 12 36 25 36 29 0 8 -53 44
-74 51 -6 2 -4 17 3 35 13 31 16 32 75 33 33 0 75 2 91 4 65 9 122 16 155 21
63 10 234 52 295 74 33 12 74 25 91 30 55 18 308 147 379 195 237 159 419 340
567 564 177 268 299 612 323 916 3 39 11 75 18 81 15 14 136 38 145 29 4 -4 7
-43 7 -88 l0 -82 125 -3 125 -3 34 35 c19 20 31 36 25 37 -5 1 -47 2 -94 3
-133 4 -125 1 -127 44 -5 66 3 82 42 82 44 0 81 17 101 47 8 14 14 26 12 28
-2 2 -36 5 -76 6 -44 1 -72 6 -73 13 0 6 -2 23 -4 37 -5 41 9 53 67 55 29 1
58 2 65 3 14 1 63 48 63 59 0 4 -62 8 -137 7 -128 0 -140 -2 -170 -23 -41 -29
-42 -42 -3 -42 30 0 30 -1 30 -54 0 -30 -4 -57 -9 -60 -5 -3 -41 1 -79 10 -80
18 -76 11 -88 159 -14 190 -74 423 -155 603 -115 255 -224 416 -404 598 -233
235 -506 404 -820 506 -69 22 -239 63 -305 73 -25 4 -56 8 -70 10 -14 2 -50 7
-80 10 -30 4 -57 11 -61 16 -10 17 -40 201 -34 208 9 8 61 -54 88 -107 l22
-42 38 25 c35 25 37 28 37 83 1 31 3 126 7 210 3 83 4 152 2 152 -2 -1 -23
-14 -46 -31z m-186 -561 c2 -18 0 -20 -7 -8 -12 18 -13 30 -2 30 4 0 9 -10 9
-22z m-230 -34 c-3 -3 -12 -4 -19 -1 -8 3 -5 6 6 6 11 1 17 -2 13 -5z m430 0
c-3 -3 -12 -4 -19 -1 -8 3 -5 6 6 6 11 1 17 -2 13 -5z m90 -10 c-3 -3 -12 -4
-19 -1 -8 3 -5 6 6 6 11 1 17 -2 13 -5z m-650 -10 c-3 -3 -12 -4 -19 -1 -8 3
-5 6 6 6 11 1 17 -2 13 -5z m-90 -20 c-3 -3 -12 -4 -19 -1 -8 3 -5 6 6 6 11 1
17 -2 13 -5z m410 -36 c-3 -8 -6 -5 -6 6 -1 11 2 17 5 13 3 -3 4 -12 1 -19z
m150 -20 c-3 -8 -6 -5 -6 6 -1 11 2 17 5 13 3 -3 4 -12 1 -19z m30 -140 c-3
-8 -6 -5 -6 6 -1 11 2 17 5 13 3 -3 4 -12 1 -19z m813 -14 c0 -2 -9 0 -20 6
-11 6 -20 13 -20 16 0 2 9 0 20 -6 11 -6 20 -13 20 -16z m-1110 -4 c0 -5 -5
-10 -11 -10 -5 0 -7 5 -4 10 3 6 8 10 11 10 2 0 4 -4 4 -10z m147 -37 c-3 -10
-5 -4 -5 12 0 17 2 24 5 18 2 -7 2 -21 0 -30z m-200 21 c-3 -3 -12 -4 -19 -1
-8 3 -5 6 6 6 11 1 17 -2 13 -5z m-60 -10 c-3 -3 -12 -4 -19 -1 -8 3 -5 6 6 6
11 1 17 -2 13 -5z m260 -96 c-3 -7 -5 -2 -5 12 0 14 2 19 5 13 2 -7 2 -19 0
-25z m1164 -5 c13 -16 12 -17 -3 -4 -17 13 -22 21 -14 21 2 0 10 -8 17 -17z
m-2351 -17 c0 -2 -8 -10 -17 -17 -16 -13 -17 -12 -4 4 13 16 21 21 21 13z
m2414 -35 c-3 -3 -15 6 -27 18 l-22 24 27 -19 c14 -10 24 -21 22 -23z m-1424
-3 c0 -17 -60 -262 -166 -678 -20 -80 -40 -148 -43 -152 -4 -4 -39 18 -78 50
-112 91 -118 95 -331 265 l-203 162 46 42 c158 145 454 280 700 319 22 3 41 7
43 8 10 10 32 -1 32 -16z m565 -10 c143 -38 308 -111 440 -195 64 -41 181
-134 197 -157 8 -12 3 -17 -530 -409 l-107 -78 -7 28 c-5 15 -11 41 -13 57 -3
16 -7 32 -9 35 -2 3 -7 22 -10 41 -3 19 -14 76 -25 125 -11 50 -22 101 -24
115 -7 38 -86 432 -91 453 -4 17 0 18 47 12 29 -4 88 -16 132 -27z m-1130 2
c-3 -5 -12 -10 -18 -10 -7 0 -6 4 3 10 19 12 23 12 15 0z m2063 -53 l53 -53
-23 -19 c-23 -19 -23 -19 -5 0 16 19 15 21 -35 72 -29 29 -50 53 -47 53 2 0
28 -24 57 -53z m-2591 5 c-36 -36 -36 -39 -19 -57 17 -19 17 -19 -6 0 l-23 19
38 38 c20 21 39 38 42 38 3 0 -12 -17 -32 -38z m413 -17 c0 -2 -10 -9 -22 -15
-22 -11 -22 -10 -4 4 21 17 26 19 26 11z m-50 -29 c0 -2 -8 -10 -17 -17 -16
-13 -17 -12 -4 4 13 16 21 21 21 13z m-409 -23 c13 -16 12 -17 -3 -4 -10 7
-18 15 -18 17 0 8 8 3 21 -13z m2718 -6 c-2 -1 -15 -11 -29 -22 l-25 -20 19
23 c11 12 24 22 29 22 6 0 8 -1 6 -3z m-2638 -24 c13 -16 12 -17 -3 -4 -10 7
-18 15 -18 17 0 8 8 3 21 -13z m-50 -10 c13 -16 12 -17 -3 -4 -10 7 -18 15
-18 17 0 8 8 3 21 -13z m-91 4 c0 -2 -15 -16 -32 -33 l-33 -29 29 33 c28 30
36 37 36 29z m390 -1 c0 -2 -8 -10 -17 -17 -16 -13 -17 -12 -4 4 13 16 21 21
21 13z m2440 -31 c19 -19 32 -35 29 -35 -3 0 -20 16 -39 35 -19 19 -32 35 -29
35 3 0 20 -16 39 -35z m-409 8 c13 -16 12 -17 -3 -4 -17 13 -22 21 -14 21 2 0
10 -8 17 -17z m-2230 -10 c13 -16 12 -17 -3 -4 -17 13 -22 21 -14 21 2 0 10
-8 17 -17z m159 4 c0 -2 -10 -12 -22 -23 l-23 -19 19 23 c18 21 26 27 26 19z
m2370 -1 c0 -2 -8 -10 -17 -17 -16 -13 -17 -12 -4 4 13 16 21 21 21 13z m-250
-31 c13 -14 21 -25 18 -25 -2 0 -15 11 -28 25 -13 14 -21 25 -18 25 2 0 15
-11 28 -25z m160 22 c0 -2 -10 -12 -22 -23 l-23 -19 19 23 c18 21 26 27 26 19z
m-2389 -34 c13 -16 12 -17 -3 -4 -10 7 -18 15 -18 17 0 8 8 3 21 -13z m-330
-26 l-24 -22 19 27 c10 14 21 24 23 22 3 -3 -6 -15 -18 -27z m379 18 c-7 -8
-17 -15 -23 -15 -6 0 -2 7 9 15 25 19 30 19 14 0z m2290 1 c0 -2 -8 -10 -17
-17 -16 -13 -17 -12 -4 4 13 16 21 21 21 13z m-46 -35 c-2 -3 -12 3 -22 13
-16 17 -16 18 5 5 12 -7 20 -15 17 -18z m361 9 c10 -11 16 -20 13 -20 -3 0
-13 9 -23 20 -10 11 -16 20 -13 20 3 0 13 -9 23 -20z m-2704 -27 c13 -16 12
-17 -3 -4 -10 7 -18 15 -18 17 0 8 8 3 21 -13z m-311 -7 c0 -2 -8 -10 -17 -17
-16 -13 -17 -12 -4 4 13 16 21 21 21 13z m403 -49 c-3 -5 -14 1 -24 14 -27 35
-23 46 6 19 13 -12 22 -27 18 -33z m2648 36 c13 -16 12 -17 -3 -4 -17 13 -22
21 -14 21 2 0 10 -8 17 -17z m-1544 -85 c-2 -18 -4 -4 -4 32 0 36 2 50 4 33 2
-18 2 -48 0 -65z m-1217 39 l-34 -32 30 36 c16 20 31 34 33 32 3 -2 -10 -18
-29 -36z m2380 40 c0 -2 -17 -19 -37 -38 -20 -18 -31 -26 -24 -16 7 9 10 17 5
17 -11 0 37 39 49 40 4 0 7 -1 7 -3z m70 -1 c0 -2 -8 -10 -17 -17 -16 -13 -17
-12 -4 4 13 16 21 21 21 13z m341 -33 c13 -16 12 -17 -3 -4 -17 13 -22 21 -14
21 2 0 10 -8 17 -17z m-2660 -30 c13 -16 12 -17 -3 -4 -10 7 -18 15 -18 17 0
8 8 3 21 -13z m2334 -3 c10 -11 16 -20 13 -20 -3 0 -13 9 -23 20 -10 11 -16
20 -13 20 3 0 13 -9 23 -20z m-2495 -13 c0 -2 -10 -12 -22 -23 l-23 -19 19 23
c18 21 26 27 26 19z m269 -68 c30 -33 52 -59 50 -59 -3 0 -34 29 -69 66 -36
36 -58 62 -50 58 8 -4 39 -33 69 -65z m2021 67 c0 -2 -17 -16 -37 -31 l-38
-26 35 30 c34 31 40 35 40 27z m40 0 c0 -2 -8 -10 -17 -17 -16 -13 -17 -12 -4
4 13 16 21 21 21 13z m-2680 -26 c-6 -11 -13 -20 -16 -20 -2 0 0 9 6 20 6 11
13 20 16 20 2 0 0 -9 -6 -20z m541 3 c13 -16 12 -17 -3 -4 -10 7 -18 15 -18
17 0 8 8 3 21 -13z m2354 -23 c10 -11 16 -20 13 -20 -3 0 -13 9 -23 20 -10 11
-16 20 -13 20 3 0 13 -9 23 -20z m-2318 -92 c26 -36 124 -168 217 -293 108
-145 165 -230 159 -236 -5 -5 -23 -12 -39 -15 -16 -2 -67 -13 -114 -24 -90
-21 -408 -89 -450 -96 -14 -3 -32 -7 -40 -9 -8 -2 -28 -7 -45 -10 -16 -3 -58
-11 -92 -18 -74 -16 -72 -20 -47 101 48 233 169 480 320 650 55 62 49 64 131
-50z m-6 75 c13 -16 12 -17 -3 -4 -17 13 -22 21 -14 21 2 0 10 -8 17 -17z
m2058 15 c-3 -2 -43 -39 -89 -83 l-85 -80 80 83 c44 45 84 82 89 82 5 0 7 -1
5 -2z m-69 -12 c0 -2 -8 -10 -17 -17 -16 -13 -17 -12 -4 4 13 16 21 21 21 13z
m285 -171 c86 -129 177 -326 200 -435 28 -129 46 -230 40 -230 -2 0 -37 7 -77
16 -40 8 -81 17 -91 19 -10 2 -26 6 -35 9 -9 3 -28 7 -42 10 -14 2 -83 19
-155 36 -71 18 -137 33 -145 35 -90 19 -317 80 -324 86 -5 5 2 22 17 41 30 39
288 359 324 403 13 17 52 65 86 107 l62 77 43 -47 c24 -26 67 -83 97 -127z
m86 138 c13 -16 12 -17 -3 -4 -17 13 -22 21 -14 21 2 0 10 -8 17 -17z m-411 3
c0 -2 -8 -10 -17 -17 -16 -13 -17 -12 -4 4 13 16 21 21 21 13z m-40 -30 c0 -2
-8 -10 -17 -17 -16 -13 -17 -12 -4 4 13 16 21 21 21 13z m-1849 -23 c13 -16
12 -17 -3 -4 -10 7 -18 15 -18 17 0 8 8 3 21 -13z m1809 -7 c0 -2 -8 -10 -17
-17 -16 -13 -17 -12 -4 4 13 16 21 21 21 13z m-1779 -33 c13 -16 12 -17 -3 -4
-17 13 -22 21 -14 21 2 0 10 -8 17 -17z m1739 3 c0 -2 -8 -10 -17 -17 -16 -13
-17 -12 -4 4 13 16 21 21 21 13z m-1709 -43 c13 -16 12 -17 -3 -4 -10 7 -18
15 -18 17 0 8 8 3 21 -13z m149 -80 l75 -78 -77 75 c-72 69 -83 80 -75 80 1 0
36 -35 77 -77z m1490 73 c0 -2 -8 -10 -17 -17 -16 -13 -17 -12 -4 4 13 16 21
21 21 13z m-1609 -33 c13 -16 12 -17 -3 -4 -10 7 -18 15 -18 17 0 8 8 3 21
-13z m1619 -58 c-41 -41 -77 -75 -79 -75 -3 0 28 34 69 75 41 41 77 75 79 75
3 0 -28 -34 -69 -75z m1020 30 c0 -5 -5 -3 -10 5 -5 8 -10 20 -10 25 0 6 5 3
10 -5 5 -8 10 -19 10 -25z m-2609 -12 c13 -16 12 -17 -3 -4 -17 13 -22 21 -14
21 2 0 10 -8 17 -17z m1419 -47 c0 -2 -8 -10 -17 -17 -16 -13 -17 -12 -4 4 13
16 21 21 21 13z m-583 -108 c-2 -18 -4 -4 -4 32 0 36 2 50 4 33 2 -18 2 -48 0
-65z m543 78 c0 -2 -8 -10 -17 -17 -16 -13 -17 -12 -4 4 13 16 21 21 21 13z
m-1174 -38 l29 -33 -32 29 c-18 17 -33 31 -33 33 0 8 8 1 36 -29z m1134 8 c0
-2 -8 -10 -17 -17 -16 -13 -17 -12 -4 4 13 16 21 21 21 13z m-1229 -43 c13
-16 12 -17 -3 -4 -10 7 -18 15 -18 17 0 8 8 3 21 -13z m1239 -98 c-41 -41 -77
-75 -79 -75 -3 0 28 34 69 75 41 41 77 75 79 75 3 0 -28 -34 -69 -75z m-789
28 c13 -16 12 -17 -3 -4 -10 7 -18 15 -18 17 0 8 8 3 21 -13z m-390 -10 c13
-16 12 -17 -3 -4 -10 7 -18 15 -18 17 0 8 8 3 21 -13z m209 -70 l75 -78 -77
75 c-72 69 -83 80 -75 80 1 0 36 -35 77 -77z m235 37 c10 -11 16 -20 13 -20
-3 0 -13 9 -23 20 -10 11 -16 20 -13 20 3 0 13 -9 23 -20z m535 16 c0 -2 -8
-10 -17 -17 -16 -13 -17 -12 -4 4 13 16 21 21 21 13z m-40 -30 c0 -2 -8 -10
-17 -17 -16 -13 -17 -12 -4 4 13 16 21 21 21 13z m-445 -26 c10 -11 16 -20 13
-20 -3 0 -13 9 -23 20 -10 11 -16 20 -13 20 3 0 13 -9 23 -20z m2062 -42 c-3
-8 -6 -5 -6 6 -1 11 2 17 5 13 3 -3 4 -12 1 -19z m-3740 -10 c-3 -8 -6 -5 -6
6 -1 11 2 17 5 13 3 -3 4 -12 1 -19z m1734 5 c13 -16 12 -17 -3 -4 -10 7 -18
15 -18 17 0 8 8 3 21 -13z m499 -16 c0 -1 -42 -43 -92 -92 l-93 -90 90 93 c83
85 95 97 95 89z m-449 -24 c13 -16 12 -17 -3 -4 -17 13 -22 21 -14 21 2 0 10
-8 17 -17z m189 3 c0 -2 -8 -10 -17 -17 -16 -13 -17 -12 -4 4 13 16 21 21 21
13z m-649 -33 c13 -16 12 -17 -3 -4 -10 7 -18 15 -18 17 0 8 8 3 21 -13z m504
-3 c3 -6 -1 -7 -9 -4 -18 7 -21 14 -7 14 6 0 13 -4 16 -10z m1932 -22 c-3 -7
-5 -2 -5 12 0 14 2 19 5 13 2 -7 2 -19 0 -25z m-2192 -38 c33 -33 57 -60 54
-60 -2 0 -31 27 -64 60 -33 33 -57 60 -54 60 2 0 31 -27 64 -60z m-1588 18
c-3 -8 -6 -5 -6 6 -1 11 2 17 5 13 3 -3 4 -12 1 -19z m1913 18 c0 -2 -8 -10
-17 -17 -16 -13 -17 -12 -4 4 13 16 21 21 21 13z m510 -20 c0 -2 -8 -10 -17
-17 -16 -13 -17 -12 -4 4 13 16 21 21 21 13z m157 -12 c-3 -3 -12 -4 -19 -1
-8 3 -5 6 6 6 11 1 17 -2 13 -5z m-720 -111 c-2 -21 -4 -4 -4 37 0 41 2 58 4
38 2 -21 2 -55 0 -75z m1930 85 c-3 -8 -6 -5 -6 6 -1 11 2 17 5 13 3 -3 4 -12
1 -19z m-1426 -31 l-24 -22 19 27 c10 14 21 24 23 22 3 -3 -6 -15 -18 -27z
m-2374 -9 c-3 -8 -6 -5 -6 6 -1 11 2 17 5 13 3 -3 4 -12 1 -19z m260 0 c-3 -8
-6 -5 -6 6 -1 11 2 17 5 13 3 -3 4 -12 1 -19z m1204 -25 c13 -16 12 -17 -3 -4
-17 13 -22 21 -14 21 2 0 10 -8 17 -17z m889 4 c0 -2 -10 -12 -22 -23 l-23
-19 19 23 c18 21 26 27 26 19z m617 -3 c-3 -3 -12 -4 -19 -1 -8 3 -5 6 6 6 11
1 17 -2 13 -5z m-927 -7 c0 -2 -15 -16 -32 -33 l-33 -29 29 33 c28 30 36 37
36 29z m1487 -29 c-3 -8 -6 -5 -6 6 -1 11 2 17 5 13 3 -3 4 -12 1 -19z m280
-15 c-3 -10 -5 -4 -5 12 0 17 2 24 5 18 2 -7 2 -21 0 -30z m-2023 -62 c50 -50
64 -71 55 -76 -8 -5 -10 -4 -6 0 4 5 -23 40 -60 77 -37 37 -65 68 -62 68 2 0
35 -31 73 -69z m526 66 c0 -2 -10 -12 -22 -23 l-23 -19 19 23 c18 21 26 27 26
19z m-340 -30 c0 -2 -15 -16 -32 -33 l-33 -29 29 33 c28 30 36 37 36 29z
m-103 -49 c-3 -7 -5 -2 -5 12 0 14 2 19 5 13 2 -7 2 -19 0 -25z m403 29 c0 -2
-10 -12 -22 -23 l-23 -19 19 23 c18 21 26 27 26 19z m-699 -54 c13 -16 12 -17
-3 -4 -10 7 -18 15 -18 17 0 8 8 3 21 -13z m317 -1 c15 12 16 11 3 -4 -14 -19
-32 -15 -30 5 0 8 2 8 6 -1 4 -10 8 -10 21 0z m342 4 c0 -2 -8 -10 -17 -17
-16 -13 -17 -12 -4 4 13 16 21 21 21 13z m-2092 -13 c-21 -2 -55 -2 -75 0 -21
2 -4 4 37 4 41 0 58 -2 38 -4z m560 -10 c-21 -2 -57 -2 -80 0 -24 2 -7 4 37 4
44 0 63 -2 43 -4z m580 -10 c-21 -2 -55 -2 -75 0 -21 2 -4 4 37 4 41 0 58 -2
38 -4z m248 -31 c-15 -15 -15 -15 -4 10 7 15 15 23 17 17 2 -6 -4 -18 -13 -27z
m137 21 c-7 -2 -21 -2 -30 0 -10 3 -4 5 12 5 17 0 24 -2 18 -5z m236 -16 c12
-15 12 -17 -3 -11 -9 3 -16 13 -16 22 0 8 1 13 3 11 1 -2 9 -12 16 -22z m178
17 c-3 -3 -12 -4 -19 -1 -8 3 -5 6 6 6 11 1 17 -2 13 -5z m1670 0 c-3 -3 -12
-4 -19 -1 -8 3 -5 6 6 6 11 1 17 -2 13 -5z m-1596 -21 c13 -16 12 -17 -3 -4
-17 13 -22 21 -14 21 2 0 10 -8 17 -17z m76 11 c-3 -3 -12 -4 -19 -1 -8 3 -5
6 6 6 11 1 17 -2 13 -5z m211 -1 c-21 -2 -55 -2 -75 0 -21 2 -4 4 37 4 41 0
58 -2 38 -4z m-578 -6 c0 -1 -24 -25 -52 -52 l-53 -50 50 53 c46 48 55 57 55
49z m1043 -4 c-18 -2 -48 -2 -65 0 -18 2 -4 4 32 4 36 0 50 -2 33 -4z m675
-10 c-10 -2 -28 -2 -40 0 -13 2 -5 4 17 4 22 1 32 -1 23 -4z m-2078 -27 c0 -2
-8 -10 -17 -17 -16 -13 -17 -12 -4 4 13 16 21 21 21 13z m-1473 -12 c-3 -3
-12 -4 -19 -1 -8 3 -5 6 6 6 11 1 17 -2 13 -5z m2184 -31 c13 -16 12 -17 -3
-4 -17 13 -22 21 -14 21 2 0 10 -8 17 -17z m-751 -7 c0 -2 -8 -10 -17 -17 -16
-13 -17 -12 -4 4 13 16 21 21 21 13z m610 -93 l75 -78 -77 75 c-43 41 -78 76
-78 77 0 8 11 -3 80 -74z m-1823 35 c-3 -7 -5 -2 -5 12 0 14 2 19 5 13 2 -7 2
-19 0 -25z m3530 26 c-3 -3 -12 -4 -19 -1 -8 3 -5 6 6 6 11 1 17 -2 13 -5z
m-2347 -7 c0 -2 -10 -12 -22 -23 l-23 -19 19 23 c18 21 26 27 26 19z m290 0
c0 -1 -28 -29 -62 -62 l-63 -60 60 63 c55 58 65 67 65 59z m-1225 -37 c44 -11
114 -29 155 -40 41 -11 170 -43 285 -71 116 -28 215 -52 220 -54 6 -1 25 -6
43 -10 18 -4 34 -11 37 -14 2 -4 -18 -34 -44 -67 -26 -32 -137 -171 -246 -308
l-198 -250 -34 40 c-76 89 -176 258 -229 389 -35 86 -84 269 -91 343 -7 72
-12 70 102 42z m222 14 c-3 -3 -12 -4 -19 -1 -8 3 -5 6 6 6 11 1 17 -2 13 -5z
m-730 -26 c-3 -8 -6 -5 -6 6 -1 11 2 17 5 13 3 -3 4 -12 1 -19z m3820 0 c-3
-8 -6 -5 -6 6 -1 11 2 17 5 13 3 -3 4 -12 1 -19z m-3010 6 c-3 -3 -12 -4 -19
-1 -8 3 -5 6 6 6 11 1 17 -2 13 -5z m583 -18 c0 -2 -8 -10 -17 -17 -16 -13
-17 -12 -4 4 13 16 21 21 21 13z m1990 -35 c0 -26 -47 -203 -76 -284 -33 -92
-104 -236 -152 -307 -66 -99 -160 -210 -176 -210 -6 1 -105 127 -221 282 -115
155 -215 286 -221 292 -6 6 -18 23 -28 38 -18 27 -18 28 7 37 14 5 42 12 63
16 22 3 208 41 414 84 206 42 378 76 383 74 4 -3 7 -12 7 -22z m-2030 -14 c0
-2 -10 -12 -22 -23 l-23 -19 19 23 c18 21 26 27 26 19z m-1343 -39 c-3 -7 -5
-2 -5 12 0 14 2 19 5 13 2 -7 2 -19 0 -25z m1593 19 c0 -1 -42 -43 -92 -92
l-93 -90 90 93 c83 85 95 97 95 89z m250 -11 c0 -2 -8 -10 -17 -17 -16 -13
-17 -12 -4 4 13 16 21 21 21 13z m-40 -30 c0 -2 -8 -10 -17 -17 -16 -13 -17
-12 -4 4 13 16 21 21 21 13z m80 -16 c12 -7 10 -9 -8 -7 -12 0 -22 5 -22 9 0
11 12 10 30 -2z m511 -7 c13 -16 12 -17 -3 -4 -17 13 -22 21 -14 21 2 0 10 -8
17 -17z m-126 -63 c38 -38 67 -70 64 -70 -2 0 -36 32 -74 70 -38 39 -67 70
-64 70 2 0 36 -31 74 -70z m-408 13 c-3 -10 -5 -4 -5 12 0 17 2 24 5 18 2 -7
2 -21 0 -30z m68 17 c10 -11 16 -20 13 -20 -3 0 -13 9 -23 20 -10 11 -16 20
-13 20 3 0 13 -9 23 -20z m496 -7 c13 -16 12 -17 -3 -4 -17 13 -22 21 -14 21
2 0 10 -8 17 -17z m-701 3 c0 -2 -8 -10 -17 -17 -16 -13 -17 -12 -4 4 13 16
21 21 21 13z m255 -36 c10 -11 16 -20 13 -20 -3 0 -13 9 -23 20 -10 11 -16 20
-13 20 3 0 13 -9 23 -20z m476 -7 c13 -16 12 -17 -3 -4 -17 13 -22 21 -14 21
2 0 10 -8 17 -17z m-416 -43 c10 -11 16 -20 13 -20 -3 0 -13 9 -23 20 -10 11
-16 20 -13 20 3 0 13 -9 23 -20z m446 3 c13 -16 12 -17 -3 -4 -17 13 -22 21
-14 21 2 0 10 -8 17 -17z m30 -40 c13 -16 12 -17 -3 -4 -17 13 -22 21 -14 21
2 0 10 -8 17 -17z m-420 -10 c13 -16 12 -17 -3 -4 -17 13 -22 21 -14 21 2 0
10 -8 17 -17z m-571 -17 c0 -2 -8 -10 -17 -17 -16 -13 -17 -12 -4 4 13 16 21
21 21 13z m1021 -13 c13 -16 12 -17 -3 -4 -17 13 -22 21 -14 21 2 0 10 -8 17
-17z m-1291 -68 c-24 -25 -46 -45 -49 -45 -3 0 15 20 39 45 24 25 46 45 49 45
3 0 -15 -20 -39 -45z m1321 28 c13 -16 12 -17 -3 -4 -17 13 -22 21 -14 21 2 0
10 -8 17 -17z m-1131 -7 c0 -2 -8 -10 -17 -17 -16 -13 -17 -12 -4 4 13 16 21
21 21 13z m1080 -81 c47 -47 82 -85 80 -85 -3 0 -43 38 -90 85 -47 47 -82 85
-80 85 3 0 43 -38 90 -85z m81 48 c13 -16 12 -17 -3 -4 -17 13 -22 21 -14 21
2 0 10 -8 17 -17z m-1201 3 c0 -2 -8 -10 -17 -17 -16 -13 -17 -12 -4 4 13 16
21 21 21 13z m70 0 c0 -3 7 -38 16 -78 8 -40 18 -84 20 -98 2 -14 13 -65 24
-115 28 -131 111 -531 116 -561 l5 -26 -58 7 c-119 15 -369 113 -502 197 -78
49 -184 129 -225 170 -29 29 -29 29 -10 48 26 26 597 458 607 459 4 1 7 -1 7
-3z m841 -69 c36 -28 83 -66 105 -84 21 -18 122 -98 224 -179 102 -80 196
-157 208 -169 l24 -22 -29 -27 c-48 -45 -214 -152 -308 -199 -176 -88 -506
-169 -505 -124 0 6 5 30 10 52 5 22 11 51 14 65 3 14 19 81 36 150 17 69 33
132 35 140 2 8 17 71 33 140 17 69 40 167 52 218 12 50 25 92 28 92 4 0 37
-24 73 -53z m-154 11 c-3 -8 -6 -5 -6 6 -1 11 2 17 5 13 3 -3 4 -12 1 -19z
m-1007 -21 c0 -1 -48 -50 -107 -107 l-108 -105 105 108 c97 99 110 112 110
104z m130 -11 c0 -2 -8 -10 -17 -17 -16 -13 -17 -12 -4 4 13 16 21 21 21 13z
m1401 -23 c13 -16 12 -17 -3 -4 -17 13 -22 21 -14 21 2 0 10 -8 17 -17z
m-1471 -27 c0 -2 -8 -10 -17 -17 -16 -13 -17 -12 -4 4 13 16 21 21 21 13z
m1501 -13 c13 -16 12 -17 -3 -4 -10 7 -18 15 -18 17 0 8 8 3 21 -13z m940 -20
c-12 -20 -14 -14 -5 12 4 9 9 14 11 11 3 -2 0 -13 -6 -23z m-2481 3 c0 -2 -8
-10 -17 -17 -16 -13 -17 -12 -4 4 13 16 21 21 21 13z m1571 -23 c13 -16 12
-17 -3 -4 -17 13 -22 21 -14 21 2 0 10 -8 17 -17z m-80 -10 c13 -16 12 -17 -3
-4 -17 13 -22 21 -14 21 2 0 10 -8 17 -17z m-1531 3 c0 -2 -8 -10 -17 -17 -16
-13 -17 -12 -4 4 13 16 21 21 21 13z m2180 -26 c-6 -11 -13 -20 -16 -20 -2 0
0 9 6 20 6 11 13 20 16 20 2 0 0 -9 -6 -20z m-3136 -6 c3 -8 2 -12 -4 -9 -6 3
-10 10 -10 16 0 14 7 11 14 -7z m2597 -1 c13 -16 12 -17 -3 -4 -17 13 -22 21
-14 21 2 0 10 -8 17 -17z m-1681 3 c0 -2 -8 -10 -17 -17 -16 -13 -17 -12 -4 4
13 16 21 21 21 13z m1635 -36 c21 -22 37 -40 34 -40 -3 0 -23 18 -44 40 -21
22 -37 40 -34 40 3 0 23 -18 44 -40z m-1675 6 c0 -2 -8 -10 -17 -17 -16 -13
-17 -12 -4 4 13 16 21 21 21 13z m797 -148 c-2 -24 -4 -5 -4 42 0 47 2 66 4
43 2 -24 2 -62 0 -85z m-877 88 c0 -2 -8 -10 -17 -17 -16 -13 -17 -12 -4 4 13
16 21 21 21 13z m-399 -53 c13 -16 12 -17 -3 -4 -10 7 -18 15 -18 17 0 8 8 3
21 -13z m2391 -128 c3 3 18 -11 33 -30 52 -69 18 -44 -91 68 -60 61 -73 77
-28 34 44 -43 83 -75 86 -72z m-2165 77 c-21 -21 -35 -41 -32 -44 6 -6 -47
-48 -61 -48 -4 0 22 29 57 65 35 36 66 65 68 65 3 0 -12 -17 -32 -38z m-196
11 c13 -16 12 -17 -3 -4 -10 7 -18 15 -18 17 0 8 8 3 21 -13z m2313 -9 c3 -8
2 -12 -4 -9 -6 3 -10 10 -10 16 0 14 7 11 14 -7z m266 2 c0 -2 -8 -10 -17 -17
-16 -13 -17 -12 -4 4 13 16 21 21 21 13z m-2880 -36 c6 -11 8 -20 6 -20 -3 0
-10 9 -16 20 -6 11 -8 20 -6 20 3 0 10 -9 16 -20z m341 -7 c13 -16 12 -17 -3
-4 -10 7 -18 15 -18 17 0 8 8 3 21 -13z m2849 -7 c0 -2 -8 -10 -17 -17 -16
-13 -17 -12 -4 4 13 16 21 21 21 13z m-360 -9 c0 -2 -17 -19 -37 -38 l-38 -34
34 38 c33 34 41 42 41 34z m-2480 -30 c0 -2 -12 -14 -27 -28 l-28 -24 24 28
c23 25 31 32 31 24z m-259 -74 c13 -16 12 -17 -3 -4 -10 7 -18 15 -18 17 0 8
8 3 21 -13z m209 13 c0 -2 -8 -10 -17 -17 -16 -13 -17 -12 -4 4 13 16 21 21
21 13z m2481 -13 c13 -16 12 -17 -3 -4 -17 13 -22 21 -14 21 2 0 10 -8 17 -17z
m-2311 -18 c13 -14 21 -25 18 -25 -2 0 -15 11 -28 25 -13 14 -21 25 -18 25 2
0 15 -11 28 -25z m2630 11 c0 -2 -8 -10 -17 -17 -16 -13 -17 -12 -4 4 13 16
21 21 21 13z m-2888 -81 l23 19 -23 -24 -22 -25 -48 50 -47 50 47 -44 c47 -45
47 -45 70 -26z m48 51 c0 -2 -8 -10 -17 -17 -16 -13 -17 -12 -4 4 13 16 21 21
21 13z m2760 -61 c-24 -25 -46 -45 -49 -45 -3 0 15 20 39 45 24 25 46 45 49
45 3 0 -15 -20 -39 -45z m-2479 18 c13 -16 12 -17 -3 -4 -10 7 -18 15 -18 17
0 8 8 3 21 -13z m2109 13 c0 -2 -8 -10 -17 -17 -16 -13 -17 -12 -4 4 13 16 21
21 21 13z m105 -16 c10 -11 16 -20 13 -20 -3 0 -13 9 -23 20 -10 11 -16 20
-13 20 3 0 13 -9 23 -20z m-2475 6 c0 -2 -8 -10 -17 -17 -16 -13 -17 -12 -4 4
13 16 21 21 21 13z m-40 -30 c0 -2 -8 -10 -17 -17 -16 -13 -17 -12 -4 4 13 16
21 21 21 13z m2360 0 c0 -2 -8 -10 -17 -17 -16 -13 -17 -12 -4 4 13 16 21 21
21 13z m270 -73 c0 -2 -18 10 -40 27 -22 17 -40 34 -40 37 0 2 18 -10 40 -27
22 -17 40 -34 40 -37z m-2595 -23 c33 -33 57 -60 54 -60 -2 0 -31 27 -64 60
-33 33 -57 60 -54 60 2 0 31 -27 64 -60z m2663 32 c6 6 14 10 16 7 3 -3 -3
-10 -13 -16 -16 -10 -23 -7 -42 15 l-24 27 26 -22 c19 -18 28 -20 37 -11z
m-40 -25 c9 -10 -1 -25 -41 -63 l-52 -49 48 50 c37 40 45 53 35 63 -7 7 -9 12
-6 12 3 0 10 -6 16 -13z m-1221 -19 c-3 -8 -6 -5 -6 6 -1 11 2 17 5 13 3 -3 4
-12 1 -19z m-862 -48 c3 -6 -1 -7 -9 -4 -18 7 -21 14 -7 14 6 0 13 -4 16 -10z
m-450 -20 c10 -11 16 -20 13 -20 -3 0 -13 9 -23 20 -10 11 -16 20 -13 20 3 0
13 -9 23 -20z m1172 -117 c-2 -21 -4 -6 -4 32 0 39 2 55 4 38 2 -18 2 -50 0
-70z m1263 93 c0 -2 -8 -10 -17 -17 -16 -13 -17 -12 -4 4 13 16 21 21 21 13z
m-2379 -23 c13 -16 12 -17 -3 -4 -17 13 -22 21 -14 21 2 0 10 -8 17 -17z m40
-30 c13 -16 12 -17 -3 -4 -17 13 -22 21 -14 21 2 0 10 -8 17 -17z m2289 13 c0
-2 -8 -10 -17 -17 -16 -13 -17 -12 -4 4 13 16 21 21 21 13z m-793 -72 c-3 -3
-12 -4 -19 -1 -8 3 -5 6 6 6 11 1 17 -2 13 -5z m-670 -10 c-3 -3 -12 -4 -19
-1 -8 3 -5 6 6 6 11 1 17 -2 13 -5z m566 -11 c-7 -2 -19 -2 -25 0 -7 3 -2 5
12 5 14 0 19 -2 13 -5z m-66 -9 c-3 -3 -12 -4 -19 -1 -8 3 -5 6 6 6 11 1 17
-2 13 -5z m-1032 -92 c-3 -3 -11 0 -18 7 -9 10 -8 11 6 5 10 -3 15 -9 12 -12z
m912 -24 c-3 -7 -5 -2 -5 12 0 14 2 19 5 13 2 -7 2 -19 0 -25z m-240 -100 c-3
-8 -6 -5 -6 6 -1 11 2 17 5 13 3 -3 4 -12 1 -19z m-200 -34 c-3 -3 -12 -4 -19
-1 -8 3 -5 6 6 6 11 1 17 -2 13 -5z m50 -10 c-3 -3 -12 -4 -19 -1 -8 3 -5 6 6
6 11 1 17 -2 13 -5z m80 -10 c-3 -3 -12 -4 -19 -1 -8 3 -5 6 6 6 11 1 17 -2
13 -5z m406 -11 c-7 -2 -19 -2 -25 0 -7 3 -2 5 12 5 14 0 19 -2 13 -5z"/>
</g>
</svg>
